<?xml version="1.0" standalone="no"?>
<!DOCTYPE svg PUBLIC "-//W3C//DTD SVG 20010904//EN"
 "http://www.w3.org/TR/2001/REC-SVG-20010904/DTD/svg10.dtd">
<svg version="1.0" xmlns="http://www.w3.org/2000/svg"
 width="700.000000pt" height="700.000000pt" viewBox="0 0 700.000000 700.000000"
 preserveAspectRatio="xMidYMid meet">
<metadata>
Created by potrace 1.14, written by Peter Selinger 2001-2017
</metadata>
<g transform="translate(0.000000,700.000000) scale(0.100000,-0.100000)"
fill="#000000" stroke="none">
<path d="M3378 6415 c-2 -1 -48 -5 -103 -9 -55 -3 -120 -9 -145 -12 -45 -6
-278 -48 -315 -58 -410 -103 -772 -278 -1105 -535 -113 -87 -153 -123 -295
-266 -412 -415 -690 -961 -790 -1547 -29 -174 -39 -295 -39 -488 0 -225 11
-345 50 -545 155 -815 649 -1523 1360 -1953 324 -195 731 -341 1079 -387 28
-4 61 -9 75 -11 108 -17 415 -23 589 -11 57 4 107 9 110 11 3 2 33 6 66 10 33
3 114 18 180 31 160 34 146 30 260 66 849 266 1529 894 1855 1713 91 229 144
432 184 706 26 176 26 538 1 730 -74 558 -275 1029 -629 1475 -97 122 -301
327 -416 419 -47 37 -94 75 -105 84 -52 43 -262 176 -364 231 -346 185 -716
297 -1121 336 -64 7 -377 15 -382 10z m385 -1629 c264 -58 474 -173 663 -360
187 -186 304 -401 361 -667 26 -120 25 -411 -1 -524 -41 -180 -107 -333 -207
-482 -86 -128 -278 -308 -404 -379 -144 -81 -268 -129 -406 -158 -267 -54
-541 -28 -779 76 -169 74 -287 154 -415 282 -217 218 -338 465 -379 776 -7 47
-8 233 -2 285 24 218 103 430 228 613 47 69 204 237 267 286 169 131 414 237
600 261 25 3 47 7 49 10 12 12 353 -3 425 -19z"/>
<path d="M3418 3780 c-76 -23 -140 -78 -184 -160 -29 -54 -27 -190 5 -250 94
-177 330 -214 467 -73 181 187 48 497 -212 492 -27 0 -61 -4 -76 -9z"/>
</g>
</svg>
